<svg xmlns="http://www.w3.org/2000/svg" height="128.25" width="523.59"><path fill="#131b28" d="M223.9 46.171l.001-.005-3.352 11.88 3.351-11.875z"/><path fill="#131b28" d="M241.14 71.962l-3.694-.022 3.694.022z"/><path fill="#131b28" d="M240.19 89.703h.004l-22.131.081 22.128-.081z"/><path fill="#131b28" d="M244.83 71.984l-3.695-.022 3.695.022z"/><path fill="#131b28" d="M242.13 88.195l3.855-14.702-3.855 14.705v-.002z"/><path fill="#131b28" d="M323.61 20.49l-7.181 33.76 7.181-33.76z"/><path fill="#131b28" d="M305.15 20.49l-5.452 25.22 5.452-25.222v.002z"/><path fill="#131b28" d="M322.38 18.971h-15.356c-.852 0-1.698.684-1.88 1.516l-5.452 25.222-5.452 25.222c-.181.833-1.025 1.514-1.877 1.514h-10.87c-10.753 0-9.509-7.436-7.307-17.627l.066-.308.242-1.284.045-.242.491-2.615.526-2.803c.16-.845.403-2.08.562-2.856l2.478-12.109 2.481-12.109c.171-.835-.388-1.521-1.24-1.521h-15.762c-.852 0-1.696.686-1.87 1.519l-3.389 16.079-3.389 16.077-.005.024-.315 1.494c-3.904 17.822-2.869 34.817 18.347 35.349l.615.013h33.302c.852 0 1.696-.684 1.874-1.519l7.181-33.757 7.181-33.76c.177-.835-.376-1.519-1.228-1.519z"/><path fill="#131b28" d="M383.64 72.621c.853 0 1.411.684 1.24 1.519l-1.492 7.288"/><path fill="#131b28" d="M381.9 88.719l1.49-7.293-1.492 7.295.001-.002z"/><path fill="#131b28" d="M380.03 90.253l.007-.002c-4.519.037-18.099.139-28.306.139 12.422 0 28.298-.137 28.298-.137z"/><path fill="#131b28" d="M342.57 63.234c-.013-.798.896-2.173 1.749-2.173l-1.918-.032c-.864 8.691.168 2.205.168 2.205z"/><path fill="#131b28" d="M353.13 90.387l-.295.002.295-.002z"/><path fill="#131b28" d="M383.64 72.621c.853 0 1.411.684 1.24 1.519l-1.492 7.288-.243 1.189"/><path fill="#131b28" d="M360.4 90.37h0z"/><path fill="#131b28" d="M356.63 90.382h0z"/><path fill="#131b28" d="M355.48 90.385l-.361.002.361-.002z"/><path fill="#131b28" d="M354.31 90.387h0z"/><path fill="#131b28" d="M356.41 90.382l-.93.002.93-.002z"/><path fill="#131b28" d="M360.34 90.37l-3.705.013c1.222-.002 2.463-.007 3.705-.013z"/><path fill="#131b28" d="M380.04 90.25h.001c-3.312.027-11.49.088-19.646.12 8.152-.029 16.332-.093 19.645-.12z"/><path fill="#131b28" d="M381.9 88.722l1.249-6.106-1.25 6.111.001-.005z"/><path fill="#131b28" d="M355.12 90.387h0z"/><path fill="#131b28" d="M352.83 90.389h0z"/><path fill="#131b28" d="M353.99 90.387h0z"/><path fill="#131b28" d="M129.36 63.417l2.385-10.574-2.727 12.087-2.617 12.312 2.294-10.793c.177-.835.477-2.2.665-3.032z"/><path fill="#131b28" d="M157.91 18.793h-16.864c-.853 0-1.704.681-1.895 1.511l-1.599 7.058-1.599 7.061c-.188.83.355 1.511 1.208 1.511h16.995c.852 0 1.699-.681 1.882-1.514l1.545-7.058 1.545-7.053v-.002c.182-.833-.366-1.514-1.22-1.514z"/><path fill="#131b28" d="M154.24 42.272v-.002l-4.946 22.883 4.946-22.881z"/><path fill="#131b28" d="M105.25 118.09s8.501.11 13.905.11c-4.105 0-10.885-.076-13.912-.112l.008.002z"/><path fill="#131b28" d="M134.13 42.269l-2.388 10.574 2.388-10.574z"/><path fill="#131b28" d="M153.02 40.756h-16.997c-.852 0-1.704.681-1.892 1.514l-2.388 10.574-2.385 10.574c-.188.833-.488 2.197-.665 3.032l-2.294 10.793-2.292 10.793c-.178.833-.544 2.178-.818 2.986 0 0-3.175 9.448-8.513 9.341l-.666-.013-4.619-.086h-.004c-.851-.013-1.707.652-1.905 1.48l-1.763 7.41-1.76 7.407c-.198.828.337 1.511 1.184 1.526 3.027.037 9.807.112 13.912.112 13.334 0 20.363-7.388 24.869-28.647l5.273-24.399 4.946-22.883c.179-.833-.371-1.514-1.223-1.514z"/><path fill="#131b28" d="M394.47 89.525c-.852 0-1.405-.684-1.226-1.519l12.786-59.89"/><path fill="#131b28" d="M412.24 88.004l5.171-25.562-5.171 25.562z"/><path fill="#131b28" d="M393.43 88.766c-.104-.417-.043-1.44.138-2.275l6.068-28.428-6.393 29.944c-.179.835.374 1.519 1.226 1.519h1.553c-.853 0-2.489-.342-2.592-.759z"/><path fill="#131b28" d="M411.23 89.183c-.464.188-1.543.342-2.396.342h1.553c.852 0 1.689-.684 1.858-1.521l.308-1.519c-.17.835-.857 2.51-1.322 2.698z"/><path fill="#131b28" d="M414.83 75.223l2.283-11.282-.004.022-2.279 11.26z"/><path fill="#131b28" d="M465.28 32.128l.704 2.91c.194.833-.344 1.509-1.195 1.511"/><path fill="#131b28" d="M412.55 86.486l2.277-11.262-2.277 11.262z"/><path fill="#131b28" d="M464.58 29.147l.697 2.981-.697-2.981z"/><path fill="#131b28" d="M417.11 63.942c.17-.835.45-2.188.627-3.015l2.438-11.421-2.761 12.937-.304 1.499z"/><path fill="#131b28" d="M406.24 27.135l-.531 2.498-6.068 28.43 6.393-29.946.206-.981z"/><path fill="#131b28" d="M465.98 35.038l-.704-2.91-.697-2.981-.353-1.509c-1.381-5.364-5.433-8.46-14.233-8.46l-13.7-.015-12.617-.015h-14.197000000000001c-.852 0-1.696.681-1.871 1.516h-.001l-.627 2.966-.741 3.503-.206.981-6.393 29.946-6.068 28.428c-.181.835-.242 1.858-.138 2.275.102.417 1.738.759 2.591.759h12.808c.853 0 1.932-.154 2.396-.342.465-.188 1.152-1.863 1.322-2.698l2.277-11.262 2.279-11.26.004-.022.304-1.499 2.761-12.937 2.439-11.426c.181-.83 1.02-1.509 1.871-1.511l40.3-.019c.851-.002 1.389-.679 1.195-1.511z"/><path fill="#131b28" d="M517.86 8.724c-.853.006-2.248.011-3.102.011h-12.899c-.853 0-1.946.576-2.427 1.28l-28.523 41.787c-.482.706-1.032.601-1.221-.229l-2.098-9.207c-.189-.833-1.044-1.511-1.896-1.511h-18.337c-.853 0-1.359.669-1.125 1.489l8.217 28.784c.234.82.251 2.168.04 2.993l-3.582 13.931c-.212.828.313 1.504 1.166 1.504h18.123c.852 0 1.724-.676 1.935-1.504l3.583-13.931c.211-.825.804-2.061 1.318-2.742l46.306-61.459c.514-.681.236-1.235-.616-1.229l-4.861.032z"/><path fill="#131b28" d="M372.18 44.774l-.001-.017c-.107.925-.961 1.604-1.813 1.604h-23.248c-.803 0-1.212-.547-1.094-1.221l.022-.054-.015.007.013-.078.106-.396c2.22-5.903 6.743-9.778 15.243-9.778 9.569 0 11.437 4.675 10.787 9.932zm-6.82-26.834c-29.841 0-36.912 18.113-40.879 36.394-3.967 18.633-3.626 36.055 27.253 36.055h1.096l.295-.002h1.992l.361-.002.93-.002h.219c1.222-.002 2.462-.008 3.705-.013h.062c8.155-.032 16.334-.093 19.647-.12.847-.013 1.676-.696 1.851-1.523l1.25-6.111.243-1.189 1.492-7.288c.171-.835-.387-1.519-1.24-1.519h-27.761c-11.041 0-14.32-2.935-13.112-11.56h44.377l-.004.005.03-.005c.706-.013 1.357-.498 1.616-1.145.049-.124.09-.254.107-.388l-.005.005c6.589-24.854 4.7-41.592-23.528-41.592z"/><path fill="#131b28" d="M224.32 44.679l-.42 1.487-.001.005-3.351 11.875-3.35 11.873c-.232.82-1.118 1.492-1.973 1.492h-17.736c-13.453 0-16.729-10.522-13.453-26.042 3.275-15.874 9.697-25.742 22.938-26.741 18.094-1.365 21.714 11.362 17.345 26.052zm12.163 25.818s8.362-20.303 10.261-32.031c2.59-15.699-5.27-38.466-35.63-38.466-30.187 0-43.295 21.737-48.297 45.367-5.001 23.801 1.552 44.675 31.567 44.504l23.679-.088 22.131-.081c.852-.007 1.724-.684 1.941-1.506l3.855-14.705c.215-.825-.306-1.504-1.158-1.509l-3.695-.022-3.694-.022c-.725-.005-1.14-.474-1.052-1.096.016-.112.042-.227.09-.347z"/><path fill="#131b28" d="M385.92 56.908c0 .562-.455 1.018-1.018 1.018-.562 0-1.018-.457-1.018-1.018 0-.562.457-1.016 1.018-1.016.563 0 1.018.454 1.018 1.016z"/><path fill="#0868ac" d="M5.979 30.509c-8.335 11.98-7.297 27.566-.93 40.295l.466.906.298.574.186.33.332.593c.198.349.4.696.608 1.042l.347.571c.229.371.465.737.706 1.103l.3.464c.332.496.671.989 1.022 1.475l.029.039.172.232c.303.417.615.83.931 1.238l.35.447c.282.354.569.706.861 1.057l.328.393c.392.461.791.92 1.199 1.37l.024.024.046.051c.398.435.806.859 1.218 1.284l.391.393c.32.322.645.64.973.955l.398.378c.438.413.881.818 1.333 1.213l.021.017.232.198c.398.344.803.686 1.211 1.023l.502.4c.333.266.67.53 1.01.789l.54.41c.375.276.752.547 1.133.813l.413.293.114.081c.361.249.731.488 1.1.728l.476.317c.566.359 1.141.713 1.722 1.055l.476.269c.427.247.857.488 1.293.725l.715.369.925.481.214.102.378.183c.485.232.973.459 1.466.679l.31.139c.565.247 1.135.483 1.71.71l.416.164c.532.205 1.072.408 1.614.598l.203.071c.594.208 1.195.4 1.799.588l.435.129c.615.186 1.223.408 1.858.525 40.31 7.351 52.019-24.224 52.019-24.224-9.834 12.812-27.29 16.191-43.829 12.429-.626-.142-1.234-.337-1.846-.518l-.46-.139c-.597-.183-1.189-.376-1.777-.579l-.244-.088c-.527-.186-1.049-.381-1.567-.581l-.439-.173c-.569-.225-1.134-.459-1.692-.703l-.338-.149c-.48-.217-.955-.437-1.427-.664l-.413-.198c-.371-.181-.738-.374-1.104-.562l-.737-.386c-.447-.239-.886-.488-1.323-.742l-.447-.249c-.581-.342-1.155-.696-1.723-1.055l-.465-.31c-.412-.266-.822-.537-1.226-.815l-.395-.278c-.39-.276-.776-.555-1.159-.838l-.514-.388c-.351-.269-.7-.54-1.046-.818l-.466-.374c-.439-.361-.874-.725-1.302-1.099l-.143-.12c-.464-.408-.919-.825-1.37-1.245l-.386-.371c-.333-.317-.662-.637-.984-.964l-.386-.386c-.41-.42-.813-.845-1.207-1.277l-.06-.064c-.417-.457-.825-.923-1.224-1.394l-.321-.381c-.298-.359-.593-.723-.881-1.089l-.323-.403c-.347-.45-.686-.899-1.018-1.355-9.182-12.525-12.481-29.8-5.142-43.987"/><path fill="#0868ac" d="M31.852 20.416c-6.028 8.674-5.701 20.286-.999 29.46.789 1.538 1.675 3.03 2.666 4.451.903 1.294 1.904 2.834 3.103 3.874.435.479.889.945 1.353 1.404l.356.352c.45.437.908.867 1.382 1.284l.056.049.013.013c.524.459 1.064.901 1.614 1.335l.366.286c.551.422 1.112.837 1.688 1.233l.049.037.77.508.365.242c.411.264.828.52 1.251.767l.177.102c.365.21.735.417 1.106.618l.393.205.774.4.117.054c.531.261 1.067.513 1.614.752l.356.146c.437.186.879.366 1.323.537l.566.208c.403.149.807.286 1.215.422l.549.176c.58.181 1.152.408 1.757.508 31.123 5.156 38.308-18.806 38.308-18.806-6.477 9.329-19.02 13.779-32.405 10.305-.594-.156-1.18-.327-1.763-.51l-.53-.171c-.414-.134-.825-.276-1.233-.425l-.557-.208c-.447-.171-.889-.349-1.327-.535l-.358-.151c-.549-.239-1.09-.491-1.623-.754l-.814-.415-.47-.242c-.347-.188-.691-.383-1.03-.581l-.247-.139c-.421-.247-.836-.5-1.248-.762l-.376-.251-.808-.535c-.574-.396-1.132-.811-1.682-1.23l-.378-.298c-5.859-4.626-10.503-10.947-12.711-18.115-2.314-7.434-1.815-15.779 2.194-22.551"/><path fill="#0868ac" d="M53.613 12.875c-3.554 5.229-3.903 11.724-1.437 17.5 2.6 6.13 7.928 10.94 14.147 13.22l.773.269.341.107c.366.115.73.249 1.108.32 17.185 3.32 21.846-8.818 23.087-10.605-4.083 5.879-10.945 7.29-19.364 5.247-.665-.162-1.396-.402-2.037-.629-.822-.293-1.632-.627-2.419-1.005-1.495-.718-2.92-1.59-4.241-2.588-7.534-5.716-12.214-16.621-7.298-25.502"/><path fill="#0868ac" d="M247.16 114.73l-4.954 11.282h-5.469l.448-10.251-4.026 10.251h-5.295l-.139-11.282.585-2.786h3.75l-.723 11.143 4.163-11.143h5.228l-.378 11.282 4.128-11.282h3.267l-.585 2.786z"/><path fill="#0868ac" d="M255.79 118.07c.482-2.202.344-2.615-.791-2.615h-1.72l-1.101 5.161-1.686 5.398h-3.198l2.614-12.244.38-1.79h2.924l.378.825s1.686-.996 3.335-.996c3.51 0 3.235 2.647 2.477 6.26h-3.611z"/><path fill="#0868ac" d="M266.18 110.19c-1.409 0-2.304-.413-1.96-2.131.378-1.721 1.48-2.134 2.854-2.134 1.378 0 2.306.413 1.927 2.134-.344 1.685-1.444 2.131-2.821 2.131zm-1.512 15.823h-3.167l.62-5.503 1.101-5.09-2.201-.483.619-2.991h6.018l-2.991 14.067z"/><path fill="#0868ac" d="M278.39 114.93l-3.955.483-1.137 5.366c-.31 1.48-.31 1.892.999 1.892h2.648l-.551 2.82s-2.406.723-3.44.723c-4.059 0-4.025-2.236-3.301-5.574l1.101-5.261-2.202-.481.653-2.993h2.306l1.307-3.545h3.13l-.758 3.545h3.853l-.653 3.025z"/><path fill="#0868ac" d="M286.61 115.11c-1.857 0-2.821.964-3.198 2.683l5.297-.447c.24-1.169 0-2.236-2.098-2.236zm-3.713 5.227c-.243 1.721.411 2.305 2.612 2.305h5.537l-.549 2.615s-3.336.928-5.813.928c-6.157 0-6.227-3.472-5.435-7.188.791-3.647 2.201-7.256 8.151-7.256 5.746 0 6.022 3.472 4.611 8.596h-9.114z"/><path fill="#0868ac" d="M304.63 126.01h-3.163l.619-5.503 2.236-10.457-2.203-.515.654-2.993h6.021l-4.164 19.468z"/><path fill="#0868ac" d="M316.06 115.11c-1.859 0-2.821.964-3.201 2.683l5.298-.447c.239-1.169 0-2.236-2.097-2.236zm-3.716 5.227c-.24 1.721.414 2.305 2.614 2.305h5.538l-.551 2.615s-3.337.928-5.814.928c-6.157 0-6.224-3.472-5.433-7.188.792-3.647 2.202-7.256 8.152-7.256 5.745 0 6.019 3.472 4.611 8.596h-9.116z"/><path fill="#0868ac" d="M335.97 115.28s-4.025.034-5.125.034c-2.34 0-2.581.72-2.752 1.477l-.139.688 7.43.552s.034 2.373-.276 3.713c-.447 2.236-2.752 4.504-6.913 4.504-2.065 0-5.402-.789-5.402-.789l.585-2.717h5.126c2.271 0 2.581-.62 2.72-1.238l.171-.894-7.293-.552s-.275-1.824.102-3.645c.552-2.478 2.82-4.609 6.982-4.609 2.064 0 5.4.754 5.4.754l-.619 2.72z"/><path fill="#0868ac" d="M349.8 115.28s-4.023.034-5.125.034c-2.339 0-2.579.72-2.752 1.477l-.139.688 7.432.552s.034 2.373-.276 3.713c-.447 2.236-2.752 4.504-6.914 4.504-2.063 0-5.4-.789-5.4-.789l.585-2.717h5.126c2.269 0 2.579-.62 2.719-1.238l.171-.894-7.293-.552s-.275-1.824.102-3.645c.552-2.478 2.82-4.609 6.984-4.609 2.063 0 5.399.754 5.399.754l-.619 2.72z"/><path fill="#0868ac" d="M354.13 128.25h-2.75l.102-2.065c-.999-.066-1.514-.789-1.273-1.995.378-1.719 1.445-2.131 2.855-2.131 1.376 0 2.302.413 1.926 2.131l-.861 4.06z"/><path fill="#0868ac" d="M372.53 115.42c-2.063 0-2.784 1.238-3.267 3.508-.482 2.271-.344 3.611 1.719 3.611h2.855l1.583-7.119h-2.891zm4.713 8.77l-.38 1.824-2.887-.034-.414-.894s-2.546 1.099-4.264 1.099c-4.404 0-4.611-3.611-3.82-7.256.791-3.716 2.511-7.224 6.88-7.224 1.583 0 3.715.791 3.715.791l1.754-5.95h3.165l-3.75 17.644z"/><path fill="#0868ac" d="M388.63 115.28c-2.682 0-3.544 1.511-4.025 3.713-.447 2.236-.239 3.75 2.407 3.75 2.753 0 3.579-1.48 4.059-3.75.483-2.134.344-3.713-2.441-3.713zm-2.338 10.938c-5.676 0-6.124-3.542-5.367-7.224.792-3.679 2.787-7.188 8.463-7.188 5.64 0 6.157 3.508 5.364 7.188-.79 3.75-2.786 7.224-8.46 7.224z"/><path fill="#0868ac" d="M418.49 126.01l.62-5.435.309-1.548c.448-2.063.723-3.577-1.445-3.577h-1.685c.07 1.067-.138 2.271-.413 3.542l-1.478 7.017h-3.2l.619-5.435.309-1.548c.448-2.063.721-3.577-1.443-3.577h-1.377l-2.271 10.559h-3.682l2.993-14.067h2.889l.447.859s1.962-1.033 3.544-1.033c1.204 0 2.098.552 2.408 1.238.687-.378 2.649-1.238 4.06-1.238 4.399 0 4.264 3.577 3.472 7.224l-1.478 7.017h-3.2z"/><path fill="#0868ac" d="M433.11 115.28c-2.684 0-3.544 1.511-4.025 3.713-.447 2.236-.239 3.75 2.407 3.75 2.752 0 3.579-1.48 4.06-3.75.481-2.134.343-3.713-2.443-3.713zm-2.339 10.938c-5.678 0-6.123-3.542-5.366-7.224.791-3.679 2.786-7.188 8.462-7.188 5.642 0 6.157 3.508 5.365 7.188-.79 3.75-2.786 7.224-8.461 7.224z"/><path fill="#0868ac" d="M448.79 118.07c.481-2.202.344-2.615-.79-2.615h-1.721l-1.101 5.161-1.686 5.398h-3.198l2.614-12.244.38-1.79h2.924l.377.825s1.686-.996 3.339-.996c3.507 0 3.231 2.647 2.474 6.26h-3.611z"/><path fill="#0868ac" d="M461.11 115.11c-1.855 0-2.82.964-3.197 2.683l5.294-.447c.243-1.169 0-2.236-2.097-2.236zm-3.715 5.227c-.239 1.721.413 2.305 2.614 2.305h5.538l-.549 2.615s-3.337.928-5.813.928c-6.157 0-6.226-3.472-5.437-7.188.792-3.647 2.203-7.256 8.153-7.256 5.743 0 6.021 3.472 4.609 8.596h-9.115z"/><path fill="#0868ac" d="M469.6 126.22c-1.445 0-2.338-.413-1.959-2.097.342-1.724 1.409-2.134 2.855-2.134 1.34 0 2.268.41 1.926 2.134-.381 1.65-1.48 2.097-2.822 2.097z"/></svg>