<svg xmlns="http://www.w3.org/2000/svg" width="224.187" height="320"><polygon fill="#E44F26" points="21.117,289.846 1,64.216 222.045,64.216 201.907,289.81 111.388,314.905"/><polygon fill="#F1662A" points="111.523,295.724 184.668,275.444 201.877,82.664 111.523,82.664"/><polygon fill="#EBEBEB" points="111.523,166.348 74.905,166.348 72.375,138.011 111.523,138.011 111.523,110.337 111.428,110.337 42.133,110.337 42.795,117.762 49.598,194.019 111.523,194.019"/><polygon fill="#EBEBEB" points="111.523,238.215 111.402,238.249 80.582,229.927 78.611,207.857 63.638,207.857 50.834,207.857 54.711,251.307 111.395,267.043 111.523,267.007"/><path fill="#010101" d="M21.566 1h14.064v13.895h12.864v-13.895h14.064v42.074h-14.062v-14.087h-12.865v14.087h-14.065v-42.074z"/><path fill="#010101" d="M81.051 14.953h-12.381v-13.953h38.83v13.953h-12.387v28.122h-14.062v-28.122z"/><path fill="#010101" d="M113.662 1h14.665l9.019 14.785 9.012-14.785h14.668v42.074h-14.005v-20.854l-9.676 14.959h-.242l-9.681-14.959v20.854h-13.761v-42.074h.001z"/><path fill="#010101" d="M168.025 1h14.067v28.167h19.776v13.906h-33.844v-42.073h.001z"/><polygon fill="#fff" points="111.428,166.348 111.428,194.019 145.504,194.019 142.291,229.907 111.428,238.238 111.428,267.029 168.158,251.307 168.573,246.632 175.076,173.778 175.752,166.348 168.295,166.348"/><polygon fill="#fff" points="111.428,110.337 111.428,127.524 111.428,137.942 111.428,138.011 178.182,138.011 178.182,138.011 178.27,138.011 178.825,131.791 180.086,117.762 180.748,110.337"/></svg>