<svg xmlns="http://www.w3.org/2000/svg" width="497" height="201"><g fill="#191819"><path d="M116.123 23.18c-14.677 6.295-22.36 36.878-23.79 42.285-1.085 4.45-6.47 26.495-8.5 32.95-.432 1.091-2.515-10.075-2.505-25.055-.16-6.865 2.115-28.499-3.23-34.36-4.045-3.95-12.071-6.243-21.614.095-7.458 4.995-13.124 20.661-15.056 31.035-1.33 7.38-5.203 30.699-6.085 29.215-4.066-7.005 2.851-51.422 3.226-66.485.225-3.34-1.833-9.975-12.835-9.975-7.165.33-11.748 2.038-14.5 15.5-2.132 11.038-1.926 56.81-1.7 60.97.66 16.443 4.473 32.068 13.805 39.95 6.355 5.243 15.48 6.43 21.32 1.97 8.118-6.019 8.952-54.935 12.234-54.97 1.718.035 6.061 50.893 14.006 55.935 10.418 8.428 22.045 2.601 25.189-1.935 2.64-4.34 3.631-9.389 4.57-14.3 8.91-46.582 18.91-66.832 28.865-82 9.733-14.645-3.33-25.145-13.4-20.825zm-80.672 115.42c-.082.488-.505.833-.984.833l-.168-.015c-5.422-.915-11.608-7.163-15.395-15.547-6.034-13.364-4.906-36.15-4.758-38.704l.002-.031c-.011-1.574-.173-29.183 1.837-42.789l.202-1.375c.84-5.749 1.347-9.218 3.513-11.216.406-.375 1.039-.349 1.413.057.374.406.349 1.039-.058 1.413-1.646 1.518-2.113 4.724-2.889 10.034l-.203 1.379c-2.002 13.556-1.824 41.326-1.815 42.501l-.001.06-.004.082c-.146 2.504-1.254 24.836 4.584 37.766 4.048 8.963 10.045 13.746 13.904 14.398.546.093.913.609.82 1.154zm10.362-65.419c-.766 0-1.387-.621-1.387-1.387s.621-1.387 1.387-1.387c.768 0 1.388.621 1.388 1.387s-.62 1.387-1.388 1.387zm19.768-32.384c-13.893 3.847-18.239 27.637-18.281 27.876-.086.485-.508.827-.984.827l-.174-.015c-.544-.096-.907-.614-.812-1.158.045-.256 1.135-6.346 4.064-13.038 3.939-8.998 9.353-14.675 15.653-16.42.529-.149 1.083.165 1.23.697s-.163 1.083-.696 1.231zm19.282 101.369c-5.412 0-14.734-1.979-16.354-15.232-.067-.549.323-1.048.871-1.115.552-.064 1.047.323 1.114.871 1.361 11.139 8.565 13.477 14.369 13.477.553 0 1 .448 1 1s-.447.999-1 .999zm37.897-114.457c-16.8.49-25.604 40.596-25.691 41.001-.101.469-.515.79-.977.79l-.211-.022c-.54-.116-.884-.647-.768-1.188.022-.104 2.285-10.532 6.709-20.884 6.055-14.169 13.079-21.469 20.879-21.696l.03-.001c.539 0 .983.429.999.971.016.552-.418 1.012-.97 1.029zM260.508 63.6c-1.739-4.489-18.451-10.86-22.939 3.06-2.399 8.667-7.237 43.888-12.75 45.915-1.966.682-3.8-.455-4.13-2.34-1.003-5.728 7.435-40.99 7.75-43.465 1.914-9.097-17.545-9.659-23.545-3.57-4.375 4.598-6.62 25.07-7.455 28.645-5.42 27.328-14.045 29.578-15.82 28.68-3.225-1.727-4.1-10.602.12-36.175.947-6.427-.349-24.953-25.09-26.695-35.342-2.487-44.842 44.346-41.275 62.715 4.704 22.797 33.146 23.429 44.89 8.25 1.381-2.071 2.256 11.304 22.355 10.535 9.15-.481 15.104-9.09 16.565-9.234 1.21-.122 4.835 7.836 23.149 2.524 2.394-.646-8.814 39.729-8.21 48.195.515 4.945 5.575 7.71 9.99 8.524 8.53 1.259 12.155-3.741 13.915-9.26 1.615-5.558 25.884-109.314 22.48-116.304zm-136.803 22.079c.098-.255 2.429-6.324 6.746-12.368 5.826-8.158 12.484-12.24 19.252-11.809.552.035.97.511.935 1.062-.035.552-.519.978-1.062.935-14.78-.954-23.911 22.653-24.002 22.892-.151.399-.531.645-.935.645-.118 0-.238-.021-.355-.066-.515-.197-.775-.775-.579-1.291zm13.073 49.944l-.082-.004c-7.887-.641-13.412-5.34-15.979-13.586-.164-.527.131-1.088.658-1.252.525-.164 1.088.13 1.252.658 2.336 7.508 7.124 11.608 14.23 12.187.55.044.96.527.915 1.077-.041.524-.478.92-.994.92zm19.995-53.273c-.38 9.823-7.301 38.65-15.74 37.915-4.265-.717-6.015-23.342 8.29-44.115 5.196-6.727 8.071-.977 7.45 6.2zm59.037-17.897c-6.884 1.014-7.97 4.724-8.762 7.433l-.222.736c-.991 3.122-1.972 8.743-1.981 8.799-.084.486-.507.829-.984.829l-.172-.015c-.544-.094-.908-.612-.814-1.156.041-.236 1.014-5.812 2.046-9.062l.208-.692c.837-2.861 2.238-7.649 10.391-8.85.542-.082 1.054.297 1.135.844.078.546-.3 1.054-.845 1.134zm10.257 120.596c-.096.475-.513.802-.979.802l-.199-.021c-3.213-.648-5.385-2.196-6.457-4.6-1.759-3.943 4.335-27.718 5.574-32.443.14-.534.684-.855 1.221-.714.534.14.854.687.714 1.222-2.801 10.678-6.82 28.57-5.683 31.121.794 1.778 2.485 2.94 5.027 3.455.541.109.892.637.782 1.178zm25.079-121.465c-.066.549-.573.94-1.113.873-4.858-.587-6.455 3.114-7.462 7.204-.097.393-.179.722-.255.962-.991 3.122-1.972 8.743-1.981 8.799-.084.486-.507.829-.984.829l-.172-.015c-.544-.094-.908-.612-.814-1.156.041-.236 1.014-5.812 2.046-9.062.066-.208.136-.494.22-.834.646-2.624 2.369-9.592 9.644-8.711.547.065.938.563.871 1.111zM473.982 66.482c-1.942-1.237-16.663-9.806-29.055 4.99-.265-3.395.392-6.623-1.59-10.055-2.185-3.484-14.376-11.038-21.525 2.58-2.242 4.271-5.909 46.978-11.645 54.76-2.015 2.843-10.598 9.261-11.21-3.435-.638-9.805 4.862-32.222 7.075-39.64 3.416-11.452-12.297-19.006-21.625-11.635-6.551 4.828-14.338 54.137-21.66 51.42-5.428-2.02 5.905-39.95 6.604-45.165 1.293-9.656-15.782-9.368-21.649-2.525-5.467 5.073-18.3 44.407-10.285 59.79 8.911 15.303 30.735 14.367 41.825-2.254.826-1.379.839 15.388 28.903 12.477-1.009 5.842-2.078 12.033-3.103 17.961-.436 2.524-.808 4.602.679 7.477 2.764 5.125 16.979 11.858 23.46.52 1.512-2.645 3.495-23.75 4.11-26.064.402-1.498 4.36 5.918 14.905 5.391 38.716-3.85 50.707-60.725 25.786-76.593zm-116.937 68.341h-.006c-9.908-.06-14.165-6.239-15.99-11.413-.185-.521.089-1.092.609-1.275.522-.186 1.093.089 1.276.609 2.345 6.646 7.095 10.037 14.116 10.079.553.003.998.454.994 1.006-.002.55-.449.994-.999.994zm1.842-66.65c-6.819 0-9.881 8.437-10.207 9.398-1.067 3.146-2.309 7.347-2.321 7.389-.128.436-.526.718-.958.718-.094 0-.189-.014-.283-.042-.53-.156-.833-.712-.677-1.242.013-.042 1.265-4.282 2.346-7.466 1.685-4.962 5.864-10.756 12.101-10.756.553 0 1 .448 1 1s-.449 1.001-1.001 1.001zm36.798-2.209c-.066.549-.571.938-1.113.873-5.301-.641-7.398 4.36-8.521 8.177l-.156.519c-1.007 3.168-2.722 9.35-2.739 9.412-.123.443-.524.733-.963.733l-.268-.037c-.532-.148-.845-.699-.697-1.231.018-.062 1.743-6.28 2.761-9.483l.144-.478c.765-2.602 3.094-10.512 10.68-9.599.547.067.938.566.872 1.114zm23.005 100.214c-1.063 0-4.735-.234-7.307-3.244-1.306-1.527-2.708-4.322-1.976-8.961.968-6.13 1.402-8.154 1.42-8.237.117-.54.647-.884 1.189-.765.539.116.883.648.766 1.188-.004.021-.444 2.074-1.399 8.125-.493 3.121.019 5.594 1.521 7.352 1.602 1.875 4.039 2.543 5.786 2.543.553 0 1 .447 1 1 0 .55-.447.999-1 .999zm17.101-104.405c-.122.539-.659.876-1.196.754-1.895-.428-3.499-.2-4.772.677-2.433 1.675-3.182 5.271-3.392 6.739-.473 3.312-2.233 15.046-2.251 15.164-.074.496-.501.852-.987.852l-.15-.011c-.546-.082-.922-.591-.84-1.137.018-.118 1.777-11.845 2.249-15.149.246-1.729 1.153-5.98 4.236-8.104 1.753-1.208 3.889-1.538 6.349-.98.538.121.876.656.754 1.195zm11.945 59.411c-2 .834-3.75 0-3.917-2.584-.5-23.166 11.751-39.073 15.328-39.073 5.006-.01.589 35.407-11.411 41.657zm35.205-27.257h-.037c-.552-.02-.982-.483-.963-1.036.458-12.734-8.933-23.557-17.634-24.727-.548-.074-.932-.577-.858-1.125.074-.547.576-.931 1.125-.858 11.579 1.557 19.774 15.423 19.366 26.782-.019.54-.463.964-.999.964zM336.723 68.67c.915-3.31-5.319-7.767-7.075-9-3.822-2.685-9.697-1.997-18.36 2.625-6.114 3.262-17.149 12.378-20.62 15.069-1.842 1.309 9.213-47.408 8.811-55.425-.402-8.017-21.59-12.142-24.79 2.2-4.883 20.95-13.906 89.95-13.9 108.745 0 7.83 11.936 8.904 17.075 8.88 5.525.075 6.135-5.83 6.305-7.375.735-7.685-1.47-15.396-.175-23.05.479-2.417 26.896 33.583 31.37 36.135 10.534 6.008 25.775-6.427 17.14-17.68-2.545-3.59-31.614-32.747-31.375-35.936 1.009-6.248 33.134-17.685 35.594-25.188zm-27.427-1.267c3.479-2.528 7.287-4.495 10.725-5.537 4.641-1.407 6.585-.548 8.548 1.53.38.401.362 1.035-.039 1.414-.401.38-1.035.362-1.414-.04-1.354-1.434-2.469-2.216-6.515-.99-3.229.979-6.826 2.84-10.129 5.241-.177.129-.383.191-.587.191-.31 0-.614-.143-.81-.412-.325-.447-.225-1.072.221-1.397zm-40.407 69.606c-.109.46-.52.769-.972.769l-.232-.027c-4.423-1.055-4.767-5.547-4.33-7.775.106-.542.63-.897 1.174-.789.541.105.895.629.79 1.17-.036.188-.825 4.577 2.83 5.449.537.126.868.666.74 1.203zm20.604-117.614c-.107.541-.633.893-1.176.785-1.52-.304-3.355.262-4.908 1.512-1.857 1.495-3.187 3.854-3.74 6.643-1.562 7.858-3.785 20.906-5.34 33.958-.061.508-.492.882-.991.882l-.12-.007c-.548-.065-.939-.563-.875-1.111 1.562-13.109 3.795-26.216 5.364-34.112.827-4.164 2.876-6.546 4.448-7.812 2.039-1.641 4.428-2.339 6.554-1.915.541.108.893.635.784 1.177zm18 112.93c.403-.377 1.037-.355 1.414.048l8.583 9.194.039.044c.097.116 2.484 2.886 6.112 1.812 1.497-.444 2.8-1.156 3.872-2.114.41-.369 1.044-.334 1.411.078.369.412.333 1.043-.078 1.412-1.294 1.156-2.854 2.012-4.636 2.541-.796.236-1.547.336-2.247.336-3.475 0-5.687-2.451-5.952-2.761l-8.566-9.177c-.377-.403-.355-1.036.048-1.413z"/></g></svg>