<?xml version="1.0" encoding="utf-8"?>
<!-- Generator: Adobe Illustrator 16.0.4, SVG Export Plug-In . SVG Version: 6.00 Build 0)  -->
<!DOCTYPE svg PUBLIC "-//W3C//DTD SVG 1.1//EN" "http://www.w3.org/Graphics/SVG/1.1/DTD/svg11.dtd">
<svg version="1.1" id="Layer_1" xmlns="http://www.w3.org/2000/svg" xmlns:xlink="http://www.w3.org/1999/xlink" x="0px" y="0px"
	 width="531.5px" height="319.5px" viewBox="0 0 531.5 319.5" enable-background="new 0 0 531.5 319.5" xml:space="preserve">
<g>
	<polygon fill="#E44F26" points="22.565,289.888 2.313,62.731 224.853,62.731 204.58,289.852 113.447,315.116 	"/>
	<polygon fill="#F1662A" points="113.583,295.806 187.222,275.39 204.548,81.305 113.583,81.305 	"/>
	<polygon fill="#EBEBEB" points="113.583,165.555 76.718,165.555 74.171,137.026 113.583,137.026 113.583,109.165 113.487,109.165 
		43.724,109.165 44.391,116.64 51.238,193.413 113.583,193.413 	"/>
	<polygon fill="#EBEBEB" points="113.583,237.907 113.461,237.942 82.434,229.563 80.449,207.345 65.374,207.345 52.483,207.345 
		56.386,251.087 113.455,266.931 113.583,266.895 	"/>
	<path fill="#010101" d="M23.018,1h14.159v13.988h12.951V1h14.159v42.359H50.129V29.176H37.178v14.184h-14.16V1L23.018,1z"/>
	<path fill="#010101" d="M82.904,15.047H70.44V1h39.093v14.047h-12.47v28.312H82.905L82.904,15.047L82.904,15.047z"/>
	<path fill="#010101" d="M115.737,1H130.5l9.081,14.884L148.654,1h14.768v42.359h-14.1V22.364l-9.742,15.061h-0.244l-9.747-15.061
		v20.996h-13.854L115.737,1L115.737,1z"/>
	<path fill="#010101" d="M170.468,1h14.162v28.358h19.911v14.001h-34.073L170.468,1L170.468,1z"/>
	<polygon fill="#FFFFFF" points="113.487,165.555 113.487,193.413 147.793,193.413 144.559,229.544 113.487,237.932 
		113.487,266.917 170.602,251.087 171.02,246.382 177.567,173.035 178.246,165.555 170.739,165.555 	"/>
	<polygon fill="#FFFFFF" points="113.487,109.165 113.487,126.468 113.487,136.957 113.487,137.026 180.691,137.026 
		180.691,137.026 180.781,137.026 181.34,130.764 182.609,116.64 183.276,109.165 	"/>
</g>
<g>
	<path fill="#131313" d="M478.78,12.631h-18.472l19.209,20.843v9.921h-39.564V31.779h19.205l-19.205-20.844V1h38.827V12.631
		L478.78,12.631z M432.111,12.631h-18.471l19.208,20.843v9.921h-39.565V31.779h19.207l-19.207-20.844V1h38.828V12.631
		L432.111,12.631z M385.898,13.103h-19.931v18.19h19.931v12.103h-34.096V1h34.096V13.103z"/>
</g>
<polygon fill="#1572B6" points="324.642,289.906 304.389,62.75 526.93,62.75 506.657,289.87 415.523,315.135 "/>
<polygon fill="#33A9DC" points="415.66,295.823 489.3,275.408 506.625,81.324 415.66,81.324 "/>
<g>
	<polygon fill="#FFFFFF" points="415.66,163.621 452.525,163.621 455.071,135.092 415.66,135.092 415.66,107.231 415.756,107.231 
		485.52,107.231 484.852,114.707 478.004,191.48 415.66,191.48 	"/>
	<polygon fill="#EBEBEB" points="415.826,235.975 415.705,236.009 384.677,227.63 382.693,205.412 367.617,205.412 354.728,205.412 
		358.63,249.154 415.698,264.997 415.826,264.961 	"/>
	<polygon fill="#FFFFFF" points="450.158,190.301 446.803,227.611 415.729,235.998 415.729,264.983 472.845,249.154 
		473.263,244.448 478.109,190.301 	"/>
	<polygon fill="#EBEBEB" points="415.756,107.231 415.756,124.535 415.756,135.023 415.756,135.092 348.55,135.092 348.55,135.092 
		348.461,135.092 347.903,128.83 346.633,114.707 345.967,107.231 	"/>
	<polygon fill="#EBEBEB" points="415.66,163.624 415.66,180.928 415.66,191.416 415.66,191.484 385.114,191.484 385.114,191.484 
		385.024,191.484 384.467,185.223 383.196,171.099 382.53,163.624 	"/>
</g>
</svg>
