<?xml version="1.0" encoding="utf-8"?>
<!-- Generator: Adobe Illustrator 16.0.4, SVG Export Plug-In . SVG Version: 6.00 Build 0)  -->
<!DOCTYPE svg PUBLIC "-//W3C//DTD SVG 1.1//EN" "http://www.w3.org/Graphics/SVG/1.1/DTD/svg11.dtd">
<svg version="1.1" id="Layer_1" xmlns="http://www.w3.org/2000/svg" xmlns:xlink="http://www.w3.org/1999/xlink" x="0px" y="0px"
	 width="224.187px" height="320px" viewBox="0 0 224.187 320" enable-background="new 0 0 224.187 320" xml:space="preserve">
<g>
	<path fill="#131313" d="M175.058,12.744h-18.436l19.172,20.803v9.902h-39.489V31.855h19.169l-19.169-20.804V1.135h38.753V12.744
		L175.058,12.744z M128.478,12.744h-18.436l19.171,20.803v9.902H89.725V31.855h19.17l-19.17-20.804V1.135h38.753V12.744
		L128.478,12.744z M82.354,13.215H62.461V31.37h19.893v12.079H48.323V1.135h34.031V13.215z"/>
</g>
<polygon fill="#1572B6" points="21.214,289.489 1,62.766 223.115,62.766 202.881,289.452 111.921,314.669 "/>
<polygon fill="#33A9DC" points="112.059,295.395 185.557,275.018 202.85,81.305 112.059,81.305 "/>
<g>
	<polygon fill="#FFFFFF" points="112.058,163.445 148.854,163.445 151.395,134.971 112.058,134.971 112.058,107.163 
		112.154,107.163 181.784,107.163 181.117,114.624 174.283,191.25 112.058,191.25 	"/>
	<polygon fill="#EBEBEB" points="112.224,235.66 112.103,235.694 81.134,227.331 79.154,205.156 64.107,205.156 51.242,205.156 
		55.137,248.814 112.096,264.627 112.224,264.592 	"/>
	<polygon fill="#FFFFFF" points="146.49,190.074 143.142,227.312 112.128,235.685 112.128,264.613 169.134,248.814 169.551,244.117 
		174.388,190.074 	"/>
	<polygon fill="#EBEBEB" points="112.154,107.163 112.154,124.434 112.154,134.902 112.154,134.971 45.077,134.971 45.077,134.971 
		44.988,134.971 44.431,128.721 43.163,114.624 42.498,107.163 	"/>
	<polygon fill="#EBEBEB" points="112.058,163.448 112.058,180.719 112.058,191.187 112.058,191.255 81.57,191.255 81.57,191.255 
		81.481,191.255 80.924,185.005 79.657,170.909 78.992,163.448 	"/>
</g>
<g>
</g>
<g>
</g>
<g>
</g>
<g>
</g>
<g>
</g>
<g>
</g>
<g>
</g>
<g>
</g>
<g>
</g>
<g>
</g>
<g>
</g>
<g>
</g>
<g>
</g>
<g>
</g>
<g>
</g>
</svg>
