<?xml version="1.0" encoding="utf-8"?>
<!-- Generator: Adobe Illustrator 16.0.4, SVG Export Plug-In . SVG Version: 6.00 Build 0)  -->
<!DOCTYPE svg PUBLIC "-//W3C//DTD SVG 1.1//EN" "http://www.w3.org/Graphics/SVG/1.1/DTD/svg11.dtd">
<svg version="1.1" id="Layer_1" xmlns="http://www.w3.org/2000/svg" xmlns:xlink="http://www.w3.org/1999/xlink" x="0px" y="0px"
	 width="224.187px" height="320px" viewBox="0 0 224.187 320" enable-background="new 0 0 224.187 320" xml:space="preserve">
<g>
	<polygon fill="#E44F26" points="21.117,289.846 1,64.216 222.045,64.216 201.907,289.81 111.388,314.905 	"/>
	<polygon fill="#F1662A" points="111.523,295.724 184.668,275.444 201.877,82.664 111.523,82.664 	"/>
	<polygon fill="#EBEBEB" points="111.523,166.348 74.905,166.348 72.375,138.011 111.523,138.011 111.523,110.337 111.428,110.337 
		42.133,110.337 42.795,117.762 49.598,194.019 111.523,194.019 	"/>
	<polygon fill="#EBEBEB" points="111.523,238.215 111.402,238.249 80.582,229.927 78.611,207.857 63.638,207.857 50.834,207.857 
		54.711,251.307 111.395,267.043 111.523,267.007 	"/>
	<path fill="#010101" d="M21.566,1H35.63v13.895h12.864V1h14.064v42.074H48.496V28.987H35.631v14.087H21.566V1L21.566,1z"/>
	<path fill="#010101" d="M81.051,14.953H68.67V1h38.83v13.953H95.113v28.122H81.051V14.953L81.051,14.953z"/>
	<path fill="#010101" d="M113.662,1h14.665l9.019,14.785L146.358,1h14.668v42.074h-14.005V22.22l-9.676,14.959h-0.242l-9.681-14.959
		v20.854h-13.761V1L113.662,1z"/>
	<path fill="#010101" d="M168.025,1h14.067v28.167h19.776v13.906h-33.844V1L168.025,1z"/>
	<polygon fill="#FFFFFF" points="111.428,166.348 111.428,194.019 145.504,194.019 142.291,229.907 111.428,238.238 
		111.428,267.029 168.158,251.307 168.573,246.632 175.076,173.778 175.752,166.348 168.295,166.348 	"/>
	<polygon fill="#FFFFFF" points="111.428,110.337 111.428,127.524 111.428,137.942 111.428,138.011 178.182,138.011 
		178.182,138.011 178.27,138.011 178.825,131.791 180.086,117.762 180.748,110.337 	"/>
</g>
<g>
</g>
<g>
</g>
<g>
</g>
<g>
</g>
<g>
</g>
<g>
</g>
<g>
</g>
<g>
</g>
<g>
</g>
<g>
</g>
<g>
</g>
<g>
</g>
<g>
</g>
<g>
</g>
<g>
</g>
</svg>
