<?xml version="1.0" encoding="utf-8"?>
<!-- Generator: Adobe Illustrator 16.0.0, SVG Export Plug-In . SVG Version: 6.00 Build 0)  -->
<!DOCTYPE svg PUBLIC "-//W3C//DTD SVG 1.1//EN" "http://www.w3.org/Graphics/SVG/1.1/DTD/svg11.dtd">
<svg version="1.1" id="Layer_1" xmlns="http://www.w3.org/2000/svg" xmlns:xlink="http://www.w3.org/1999/xlink" x="0px" y="0px"
	 width="497px" height="201px" viewBox="0 0 497 201" enable-background="new 0 0 497 201" xml:space="preserve">
<g>
	<path fill="#191819" d="M116.123,23.18c-14.677,6.295-22.36,36.878-23.79,42.285c-1.085,4.45-6.47,26.495-8.5,32.95
		c-0.432,1.091-2.515-10.075-2.505-25.055c-0.16-6.865,2.115-28.499-3.23-34.36c-4.045-3.95-12.071-6.243-21.614,0.095
		C49.026,44.09,43.36,59.756,41.428,70.13c-1.33,7.38-5.203,30.699-6.085,29.215c-4.066-7.005,2.851-51.422,3.226-66.485
		c0.225-3.34-1.833-9.975-12.835-9.975c-7.165,0.33-11.748,2.038-14.5,15.5c-2.132,11.038-1.926,56.81-1.7,60.97
		c0.66,16.443,4.473,32.068,13.805,39.95c6.355,5.243,15.48,6.43,21.32,1.97c8.118-6.019,8.952-54.935,12.234-54.97
		c1.718,0.035,6.061,50.893,14.006,55.935c10.418,8.428,22.045,2.601,25.189-1.935c2.64-4.34,3.631-9.389,4.57-14.3
		c8.91-46.582,18.91-66.832,28.865-82C139.256,29.36,126.193,18.86,116.123,23.18z M35.451,138.6
		c-0.082,0.488-0.505,0.833-0.984,0.833c-0.056,0-0.111-0.005-0.168-0.015c-5.422-0.915-11.608-7.163-15.395-15.547
		c-6.034-13.364-4.906-36.15-4.758-38.704l0.002-0.031c-0.011-1.574-0.173-29.183,1.837-42.789l0.202-1.375
		c0.84-5.749,1.347-9.218,3.513-11.216c0.406-0.375,1.039-0.349,1.413,0.057c0.374,0.406,0.349,1.039-0.058,1.413
		c-1.646,1.518-2.113,4.724-2.889,10.034l-0.203,1.379c-2.002,13.556-1.824,41.326-1.815,42.501c0,0.016,0,0.044-0.001,0.06
		l-0.004,0.082c-0.146,2.504-1.254,24.836,4.584,37.766c4.048,8.963,10.045,13.746,13.904,14.398
		C35.177,137.539,35.544,138.055,35.451,138.6z M45.813,73.181c-0.766,0-1.387-0.621-1.387-1.387c0-0.766,0.621-1.387,1.387-1.387
		c0.768,0,1.388,0.621,1.388,1.387C47.201,72.56,46.581,73.181,45.813,73.181z M65.581,40.797
		C51.688,44.644,47.342,68.434,47.3,68.673c-0.086,0.485-0.508,0.827-0.984,0.827c-0.057,0-0.115-0.005-0.174-0.015
		c-0.544-0.096-0.907-0.614-0.812-1.158c0.045-0.256,1.135-6.346,4.064-13.038c3.939-8.998,9.353-14.675,15.653-16.42
		c0.529-0.149,1.083,0.165,1.23,0.697S66.114,40.649,65.581,40.797z M84.863,142.166c-5.412,0-14.734-1.979-16.354-15.232
		c-0.067-0.549,0.323-1.048,0.871-1.115c0.552-0.064,1.047,0.323,1.114,0.871c1.361,11.139,8.565,13.477,14.369,13.477
		c0.553,0,1,0.448,1,1C85.863,141.719,85.416,142.166,84.863,142.166z M122.76,27.709c-16.8,0.49-25.604,40.596-25.691,41.001
		c-0.101,0.469-0.515,0.79-0.977,0.79c-0.069,0-0.14-0.007-0.211-0.022c-0.54-0.116-0.884-0.647-0.768-1.188
		c0.022-0.104,2.285-10.532,6.709-20.884c6.055-14.169,13.079-21.469,20.879-21.696c0.011,0,0.021-0.001,0.03-0.001
		c0.539,0,0.983,0.429,0.999,0.971C123.746,27.232,123.312,27.692,122.76,27.709z"/>
	<path fill="#191819" d="M260.508,63.6c-1.739-4.489-18.451-10.86-22.939,3.06c-2.399,8.667-7.237,43.888-12.75,45.915
		c-1.966,0.682-3.8-0.455-4.13-2.34c-1.003-5.728,7.435-40.99,7.75-43.465c1.914-9.097-17.545-9.659-23.545-3.57
		c-4.375,4.598-6.62,25.07-7.455,28.645c-5.42,27.328-14.045,29.578-15.82,28.68c-3.225-1.727-4.1-10.602,0.12-36.175
		c0.947-6.427-0.349-24.953-25.09-26.695c-35.342-2.487-44.842,44.346-41.275,62.715c4.704,22.797,33.146,23.429,44.89,8.25
		c1.381-2.071,2.256,11.304,22.355,10.535c9.15-0.481,15.104-9.09,16.565-9.234c1.21-0.122,4.835,7.836,23.149,2.524
		c2.394-0.646-8.814,39.729-8.21,48.195c0.515,4.945,5.575,7.71,9.99,8.524c8.53,1.259,12.155-3.741,13.915-9.26
		C239.643,174.346,263.912,70.59,260.508,63.6z M123.705,85.679c0.098-0.255,2.429-6.324,6.746-12.368
		c5.826-8.158,12.484-12.24,19.252-11.809c0.552,0.035,0.97,0.511,0.935,1.062c-0.035,0.552-0.519,0.978-1.062,0.935
		c-14.78-0.954-23.911,22.653-24.002,22.892c-0.151,0.399-0.531,0.645-0.935,0.645c-0.118,0-0.238-0.021-0.355-0.066
		C123.769,86.773,123.509,86.195,123.705,85.679z M136.778,135.623c-0.027,0-0.055-0.002-0.082-0.004
		c-7.887-0.641-13.412-5.34-15.979-13.586c-0.164-0.527,0.131-1.088,0.658-1.252c0.525-0.164,1.088,0.13,1.252,0.658
		c2.336,7.508,7.124,11.608,14.23,12.187c0.55,0.044,0.96,0.527,0.915,1.077C137.731,135.227,137.294,135.623,136.778,135.623z
		 M156.773,82.35c-0.38,9.823-7.301,38.65-15.74,37.915c-4.265-0.717-6.015-23.342,8.29-44.115
		C154.519,69.423,157.394,75.173,156.773,82.35z M215.81,64.453c-6.884,1.014-7.97,4.724-8.762,7.433
		c-0.076,0.26-0.148,0.506-0.222,0.736c-0.991,3.122-1.972,8.743-1.981,8.799c-0.084,0.486-0.507,0.829-0.984,0.829
		c-0.057,0-0.114-0.005-0.172-0.015c-0.544-0.094-0.908-0.612-0.814-1.156c0.041-0.236,1.014-5.812,2.046-9.062
		c0.068-0.216,0.137-0.448,0.208-0.692c0.837-2.861,2.238-7.649,10.391-8.85c0.542-0.082,1.054,0.297,1.135,0.844
		C216.733,63.865,216.355,64.373,215.81,64.453z M226.067,185.049c-0.096,0.475-0.513,0.802-0.979,0.802
		c-0.065,0-0.132-0.007-0.199-0.021c-3.213-0.648-5.385-2.196-6.457-4.6c-1.759-3.943,4.335-27.718,5.574-32.443
		c0.14-0.534,0.684-0.855,1.221-0.714c0.534,0.14,0.854,0.687,0.714,1.222c-2.801,10.678-6.82,28.57-5.683,31.121
		c0.794,1.778,2.485,2.94,5.027,3.455C225.826,183.98,226.177,184.508,226.067,185.049z M251.146,63.584
		c-0.066,0.549-0.573,0.94-1.113,0.873c-4.858-0.587-6.455,3.114-7.462,7.204c-0.097,0.393-0.179,0.722-0.255,0.962
		c-0.991,3.122-1.972,8.743-1.981,8.799c-0.084,0.486-0.507,0.829-0.984,0.829c-0.057,0-0.114-0.005-0.172-0.015
		c-0.544-0.094-0.908-0.612-0.814-1.156c0.041-0.236,1.014-5.812,2.046-9.062c0.066-0.208,0.136-0.494,0.22-0.834
		c0.646-2.624,2.369-9.592,9.644-8.711C250.822,62.538,251.213,63.036,251.146,63.584z"/>
	<path fill="#191819" d="M473.982,66.482c-1.942-1.237-16.663-9.806-29.055,4.99c-0.265-3.395,0.392-6.623-1.59-10.055
		c-2.185-3.484-14.376-11.038-21.525,2.58c-2.242,4.271-5.909,46.978-11.645,54.76c-2.015,2.843-10.598,9.261-11.21-3.435
		c-0.638-9.805,4.862-32.222,7.075-39.64c3.416-11.452-12.297-19.006-21.625-11.635c-6.551,4.828-14.338,54.137-21.66,51.42
		c-5.428-2.02,5.905-39.95,6.604-45.165c1.293-9.656-15.782-9.368-21.649-2.525c-5.467,5.073-18.3,44.407-10.285,59.79
		c8.911,15.303,30.735,14.367,41.825-2.254c0.826-1.379,0.839,15.388,28.903,12.477c-1.009,5.842-2.078,12.033-3.103,17.961
		c-0.436,2.524-0.808,4.602,0.679,7.477c2.764,5.125,16.979,11.858,23.46,0.52c1.512-2.645,3.495-23.75,4.11-26.064
		c0.402-1.498,4.36,5.918,14.905,5.391C486.912,139.225,498.903,82.35,473.982,66.482z M357.045,134.823c-0.002,0-0.004,0-0.006,0
		c-9.908-0.06-14.165-6.239-15.99-11.413c-0.185-0.521,0.089-1.092,0.609-1.275c0.522-0.186,1.093,0.089,1.276,0.609
		c2.345,6.646,7.095,10.037,14.116,10.079c0.553,0.003,0.998,0.454,0.994,1.006C358.042,134.379,357.595,134.823,357.045,134.823z
		 M358.887,68.173c-6.819,0-9.881,8.437-10.207,9.398c-1.067,3.146-2.309,7.347-2.321,7.389c-0.128,0.436-0.526,0.718-0.958,0.718
		c-0.094,0-0.189-0.014-0.283-0.042c-0.53-0.156-0.833-0.712-0.677-1.242c0.013-0.042,1.265-4.282,2.346-7.466
		c1.685-4.962,5.864-10.756,12.101-10.756c0.553,0,1,0.448,1,1S359.439,68.173,358.887,68.173z M395.685,65.964
		c-0.066,0.549-0.571,0.938-1.113,0.873c-5.301-0.641-7.398,4.36-8.521,8.177c-0.06,0.204-0.111,0.378-0.156,0.519
		c-1.007,3.168-2.722,9.35-2.739,9.412c-0.123,0.443-0.524,0.733-0.963,0.733c-0.089,0-0.179-0.012-0.268-0.037
		c-0.532-0.148-0.845-0.699-0.697-1.231c0.018-0.062,1.743-6.28,2.761-9.483c0.041-0.129,0.089-0.291,0.144-0.478
		c0.765-2.602,3.094-10.512,10.68-9.599C395.36,64.917,395.751,65.416,395.685,65.964z M418.69,166.178
		c-1.063,0-4.735-0.234-7.307-3.244c-1.306-1.527-2.708-4.322-1.976-8.961c0.968-6.13,1.402-8.154,1.42-8.237
		c0.117-0.54,0.647-0.884,1.189-0.765c0.539,0.116,0.883,0.648,0.766,1.188c-0.004,0.021-0.444,2.074-1.399,8.125
		c-0.493,3.121,0.019,5.594,1.521,7.352c1.602,1.875,4.039,2.543,5.786,2.543c0.553,0,1,0.447,1,1
		C419.69,165.729,419.243,166.178,418.69,166.178z M435.791,61.773c-0.122,0.539-0.659,0.876-1.196,0.754
		c-1.895-0.428-3.499-0.2-4.772,0.677c-2.433,1.675-3.182,5.271-3.392,6.739c-0.473,3.312-2.233,15.046-2.251,15.164
		c-0.074,0.496-0.501,0.852-0.987,0.852c-0.05,0-0.1-0.003-0.15-0.011c-0.546-0.082-0.922-0.591-0.84-1.137
		c0.018-0.118,1.777-11.845,2.249-15.149c0.246-1.729,1.153-5.98,4.236-8.104c1.753-1.208,3.889-1.538,6.349-0.98
		C435.575,60.699,435.913,61.234,435.791,61.773z M447.736,121.184c-2,0.834-3.75,0-3.917-2.584
		c-0.5-23.166,11.751-39.073,15.328-39.073C464.153,79.517,459.736,114.934,447.736,121.184z M482.941,93.927
		c-0.013,0-0.024,0-0.037,0c-0.552-0.02-0.982-0.483-0.963-1.036c0.458-12.734-8.933-23.557-17.634-24.727
		c-0.548-0.074-0.932-0.577-0.858-1.125c0.074-0.547,0.576-0.931,1.125-0.858c11.579,1.557,19.774,15.423,19.366,26.782
		C483.921,93.503,483.477,93.927,482.941,93.927z"/>
	<path fill="#191819" d="M336.723,68.67c0.915-3.31-5.319-7.767-7.075-9c-3.822-2.685-9.697-1.997-18.36,2.625
		c-6.114,3.262-17.149,12.378-20.62,15.069c-1.842,1.309,9.213-47.408,8.811-55.425c-0.402-8.017-21.59-12.142-24.79,2.2
		c-4.883,20.95-13.906,89.95-13.9,108.745c0,7.83,11.936,8.904,17.075,8.88c5.525,0.075,6.135-5.83,6.305-7.375
		c0.735-7.685-1.47-15.396-0.175-23.05c0.479-2.417,26.896,33.583,31.37,36.135c10.534,6.008,25.775-6.427,17.14-17.68
		c-2.545-3.59-31.614-32.747-31.375-35.936C302.138,87.61,334.263,76.173,336.723,68.67z M309.296,67.403
		c3.479-2.528,7.287-4.495,10.725-5.537c4.641-1.407,6.585-0.548,8.548,1.53c0.38,0.401,0.362,1.035-0.039,1.414
		c-0.401,0.38-1.035,0.362-1.414-0.04c-1.354-1.434-2.469-2.216-6.515-0.99c-3.229,0.979-6.826,2.84-10.129,5.241
		c-0.177,0.129-0.383,0.191-0.587,0.191c-0.31,0-0.614-0.143-0.81-0.412C308.75,68.353,308.85,67.728,309.296,67.403z
		 M268.889,137.009c-0.109,0.46-0.52,0.769-0.972,0.769c-0.077,0-0.154-0.01-0.232-0.027c-4.423-1.055-4.767-5.547-4.33-7.775
		c0.106-0.542,0.63-0.897,1.174-0.789c0.541,0.105,0.895,0.629,0.79,1.17c-0.036,0.188-0.825,4.577,2.83,5.449
		C268.686,135.932,269.017,136.472,268.889,137.009z M289.493,19.395c-0.107,0.541-0.633,0.893-1.176,0.785
		c-1.52-0.304-3.355,0.262-4.908,1.512c-1.857,1.495-3.187,3.854-3.74,6.643c-1.562,7.858-3.785,20.906-5.34,33.958
		c-0.061,0.508-0.492,0.882-0.991,0.882c-0.04,0-0.08-0.002-0.12-0.007c-0.548-0.065-0.939-0.563-0.875-1.111
		c1.562-13.109,3.795-26.216,5.364-34.112c0.827-4.164,2.876-6.546,4.448-7.812c2.039-1.641,4.428-2.339,6.554-1.915
		C289.25,18.326,289.602,18.853,289.493,19.395z M307.493,132.325c0.403-0.377,1.037-0.355,1.414,0.048l8.583,9.194
		c0.013,0.015,0.026,0.029,0.039,0.044c0.097,0.116,2.484,2.886,6.112,1.812c1.497-0.444,2.8-1.156,3.872-2.114
		c0.41-0.369,1.044-0.334,1.411,0.078c0.369,0.412,0.333,1.043-0.078,1.412c-1.294,1.156-2.854,2.012-4.636,2.541
		c-0.796,0.236-1.547,0.336-2.247,0.336c-3.475,0-5.687-2.451-5.952-2.761l-8.566-9.177
		C307.068,133.335,307.09,132.702,307.493,132.325z"/>
</g>
</svg>
