<svg width="256" height="245" viewBox="0 0 256 245" xmlns="http://www.w3.org/2000/svg" preserveAspectRatio="xMidYMid"><path d="M232.727 244.364h-41.454l2.91-34.91h-20.365l-2.91 34.91H85.092l-2.908-34.91H61.818l2.91 34.91H23.272L0 93.09 58.182 0h139.636L256 93.09l-23.273 151.274zm-46.545-197.82H148.78L151.272 64h-46.546l2.494-17.455H69.82L46.545 93.09l11.637 93.092h139.636l11.637-93.09-23.273-46.547zm-20.364 108.743c-3.213 0-5.818-9.69-5.818-21.643 0-11.954 2.605-21.644 5.818-21.644 3.213 0 5.818 9.69 5.818 21.644 0 11.953-2.605 21.643-5.818 21.643zm-73.454 1.804c-3.213 0-5.82-9.69-5.82-21.643 0-11.953 2.607-21.643 5.82-21.643s5.818 9.69 5.818 21.643c0 11.954-2.605 21.644-5.818 21.644z" fill="#444"/></svg>